<?xml version="1.0" encoding="UTF-8"?>
<svg xmlns="http://www.w3.org/2000/svg" viewBox="0 0 240 240">
  <defs>
    <style>
      .cls-1 {
        fill: #e6e6e6;
      }
      .cls-2 {
        fill: #b8b8b8;
      }
    </style>
  </defs>
  <circle class="cls-1" cx="120" cy="120" r="120"/>
  <path class="cls-2" d="M65.8,98.8a54.1,54.1,0,0,1,58.5.59,18,18,0,0,1,9.9,16.15c0,11.6,0,23.21,0,34.82a12.7,12.7,0,0,1-.7,4.16,243.49,243.49,0,0,1-77.9,0c-1.5-1.61-.81-3.48-0.81-5.23,0-11.08,0-22.17,0-33.25C54.84,106.82,58.51,99.89,65.8,98.8Z" transform="translate(0 0)"/>
  <circle class="cls-2" cx="120.43" cy="68.67" r="30.49"/>
</svg> 